<?xml version="1.0" encoding="utf-8"?>
<!-- Generator: Adobe Illustrator 23.0.1, SVG Export Plug-In . SVG Version: 6.00 Build 0)  -->
<svg version="1.1" id="Calque_1" focusable="false" xmlns="http://www.w3.org/2000/svg" xmlns:xlink="http://www.w3.org/1999/xlink"
	 x="0px" y="0px" viewBox="0 0 16 16" style="enable-background:new 0 0 16 16;" xml:space="preserve">
<path d="M2.5,7c0-2.5,2-4.5,4.5-4.5s4.5,2,4.5,4.5s-2,4.5-4.5,4.5S2.5,9.5,2.5,7 M15.6,13.9L12.8,11C13.5,9.9,14,8.5,14,7
	c0-3.9-3.1-7-7-7S0,3.1,0,7s3.1,7,7,7c1.5,0,2.9-0.5,4-1.2l2.9,2.8c0.2,0.3,0.5,0.4,0.9,0.4c0.3,0,0.6-0.1,0.8-0.4
	C16.1,15.1,16.1,14.4,15.6,13.9"/>
</svg>
